<svg xmlns="http://www.w3.org/2000/svg" viewBox="0 0 600 800" preserveAspectRatio="xMidYMid slice"><rect width="600" height="800" fill="#1e1d1b"/><circle cx="610" cy="60" r="215" fill="#ffffff" fill-opacity="0.05"/><path d="M30 150 C210 70 380 230 570 150" fill="none" stroke="#f6f2e9" stroke-width="4" stroke-dasharray="1.5 15" stroke-linecap="round" stroke-opacity="0.5"/><g transform="translate(147.0,247.0) scale(2.55)"><path d="M74 22 H36 A14 14 0 0 0 22 36 V84 A14 14 0 0 0 36 98 H84 A14 14 0 0 0 98 84 V48" fill="none" stroke="#f6f2e9" stroke-width="8" stroke-linecap="round" stroke-linejoin="round"/></g><g transform="translate(146,238) scale(0.600)"><path d="M0 -50 C0 -21 21 0 50 0 C21 0 0 21 0 50 C0 21 -21 0 -50 0 C-21 0 0 -21 0 -50 Z" fill="#f4bf3a" fill-opacity="1"/></g><g transform="translate(452,606) scale(1.240)"><path d="M0 -50 C0 -21 21 0 50 0 C21 0 0 21 0 50 C0 21 -21 0 -50 0 C-21 0 0 -21 0 -50 Z" fill="#f24333" fill-opacity="1"/></g></svg>